<svg xmlns="http://www.w3.org/2000/svg" width="1200" height="420" viewBox="0 0 1200 420">
  <rect width="1200" height="420" fill="#ffffff"/>

  <text x="600" y="42" text-anchor="middle" font-family="Avenir Next, Avenir, Helvetica, Arial, sans-serif" font-size="28" font-weight="700" fill="#1f2937">
    <tspan>Rough Graph of f(x) = -(x+1)</tspan><tspan baseline-shift="super" font-size="18">2</tspan><tspan>(x-2)(x-4)</tspan>
  </text>

  <line x1="90" y1="190" x2="1110" y2="190" stroke="#111827" stroke-width="3"/>
  <polygon points="1110,190 1088,180 1088,200" fill="#111827"/>
  <text x="1125" y="197" font-family="Avenir Next, Avenir, Helvetica, Arial, sans-serif" font-size="20" fill="#111827">x</text>

  <line x1="510" y1="60" x2="510" y2="360" stroke="#111827" stroke-width="3"/>
  <polygon points="510,60 500,82 520,82" fill="#111827"/>
  <text x="520" y="56" font-family="Avenir Next, Avenir, Helvetica, Arial, sans-serif" font-size="20" fill="#111827">y</text>

  <text x="390" y="220" text-anchor="middle" font-family="Avenir Next, Avenir, Helvetica, Arial, sans-serif" font-size="22" fill="#2563eb">-1</text>
  <text x="690" y="220" text-anchor="middle" font-family="Avenir Next, Avenir, Helvetica, Arial, sans-serif" font-size="22" fill="#2563eb">2</text>
  <text x="870" y="220" text-anchor="middle" font-family="Avenir Next, Avenir, Helvetica, Arial, sans-serif" font-size="22" fill="#2563eb">4</text>
  <text x="510" y="220" text-anchor="middle" font-family="Avenir Next, Avenir, Helvetica, Arial, sans-serif" font-size="22" fill="#2563eb">0</text>

  <circle cx="390" cy="190" r="6" fill="#2563eb"/>
  <circle cx="690" cy="190" r="6" fill="#2563eb"/>
  <circle cx="870" cy="190" r="6" fill="#2563eb"/>

  <path d="M 95 336
           C 185 298, 300 218, 390 190
           C 430 190, 468 225, 510 240
           C 590 268, 650 230, 690 190
           C 740 138, 800 104, 870 190
           C 950 288, 1040 330, 1100 350"
        fill="none" stroke="#dc2626" stroke-width="5" stroke-linecap="round"/>

  <circle cx="510" cy="240" r="6" fill="#f59e0b"/>
  <text x="540" y="246" font-family="Avenir Next, Avenir, Helvetica, Arial, sans-serif" font-size="20" fill="#b45309">
    (0, -8)
  </text>

  <text x="170" y="310" font-family="Avenir Next, Avenir, Helvetica, Arial, sans-serif" font-size="20" fill="#374151">
    left end down
  </text>
  <text x="950" y="326" font-family="Avenir Next, Avenir, Helvetica, Arial, sans-serif" font-size="20" fill="#374151">
    right end down
  </text>

  <text x="345" y="156" font-family="Avenir Next, Avenir, Helvetica, Arial, sans-serif" font-size="18" fill="#374151">
    touch
  </text>
  <text x="650" y="150" font-family="Avenir Next, Avenir, Helvetica, Arial, sans-serif" font-size="18" fill="#374151">
    cross
  </text>
  <text x="885" y="150" font-family="Avenir Next, Avenir, Helvetica, Arial, sans-serif" font-size="18" fill="#374151">
    cross
  </text>
</svg>
