<svg xmlns="http://www.w3.org/2000/svg" width="620" height="560" viewBox="0 0 620 560">
  <defs>
    <marker id="arrow-blue" viewBox="0 0 10 10" refX="9" refY="5" markerWidth="8" markerHeight="8" orient="auto-start-reverse">
      <path d="M 0 0 L 10 5 L 0 10 z" fill="#2563eb"/>
    </marker>
    <marker id="arrow-orange" viewBox="0 0 10 10" refX="9" refY="5" markerWidth="8" markerHeight="8" orient="auto-start-reverse">
      <path d="M 0 0 L 10 5 L 0 10 z" fill="#ea580c"/>
    </marker>
    <marker id="arrow-green" viewBox="0 0 10 10" refX="9" refY="5" markerWidth="8" markerHeight="8" orient="auto-start-reverse">
      <path d="M 0 0 L 10 5 L 0 10 z" fill="#059669"/>
    </marker>
    <marker id="arrow-purple" viewBox="0 0 10 10" refX="9" refY="5" markerWidth="8" markerHeight="8" orient="auto-start-reverse">
      <path d="M 0 0 L 10 5 L 0 10 z" fill="#7c3aed"/>
    </marker>
    <style>
      .label {
        font-family: "Avenir Next", "Helvetica Neue", Arial, sans-serif;
        font-size: 25px;
        fill: #0f172a;
      }
      .small {
        font-family: "Avenir Next", "Helvetica Neue", Arial, sans-serif;
        font-size: 21px;
        fill: #334155;
      }
    </style>
  </defs>

  <rect width="620" height="560" fill="#ffffff"/>

  <line x1="170" y1="420" x2="470" y2="420" stroke="#cbd5e1" stroke-width="5"/>
  <line x1="470" y1="420" x2="470" y2="120" stroke="#cbd5e1" stroke-width="5"/>
  <line x1="470" y1="120" x2="170" y2="120" stroke="#cbd5e1" stroke-width="5"/>
  <line x1="170" y1="120" x2="170" y2="420" stroke="#cbd5e1" stroke-width="5"/>

  <line x1="170" y1="420" x2="470" y2="420" stroke="#2563eb" stroke-width="7" marker-end="url(#arrow-blue)"/>

  <line x1="170" y1="420" x2="170" y2="120" stroke="#ea580c" stroke-width="7" marker-end="url(#arrow-orange)"/>

  <line x1="170" y1="420" x2="470" y2="120" stroke="#059669" stroke-width="7" marker-end="url(#arrow-green)"/>

  <line x1="170" y1="120" x2="470" y2="420" stroke="#7c3aed" stroke-width="7" marker-end="url(#arrow-purple)"/>

  <circle cx="170" cy="420" r="6" fill="#0f172a"/>
  <circle cx="470" cy="420" r="6" fill="#0f172a"/>
  <circle cx="470" cy="120" r="6" fill="#0f172a"/>
  <circle cx="170" cy="120" r="6" fill="#0f172a"/>

  <text x="150" y="452" class="label">A</text>
  <text x="475" y="452" class="label">B</text>
  <text x="475" y="110" class="label">C</text>
  <text x="150" y="110" class="label">D</text>

  <path d="M 242 420 A 72 72 0 0 0 221 369" fill="none" stroke="#64748b" stroke-width="3"/>
  <text x="245" y="360" class="label">45°</text>

  <path d="M 170 350 A 70 70 0 0 0 240 420" fill="none" stroke="#64748b" stroke-width="3"/>
  <text x="188" y="378" class="label">90°</text>
</svg>
