<svg xmlns="http://www.w3.org/2000/svg" width="960" height="540" viewBox="0 0 960 540" role="img" aria-labelledby="title desc">
  <title id="title">Second graph for increasing decreasing and concavity practice</title>
  <desc id="desc">A smooth function graph with a local minimum near x equals negative 1, a local maximum to the right of the y-axis, and three concavity sections: concave up, then concave down, then concave up.</desc>
  <rect width="960" height="540" fill="#ffffff"/>
  <g stroke="#e5e7eb" stroke-width="1">
    <line x1="180" y1="90" x2="180" y2="450"/>
    <line x1="330" y1="90" x2="330" y2="450"/>
    <line x1="480" y1="90" x2="480" y2="450"/>
    <line x1="630" y1="90" x2="630" y2="450"/>
    <line x1="780" y1="90" x2="780" y2="450"/>
    <line x1="120" y1="90" x2="840" y2="90"/>
    <line x1="120" y1="150" x2="840" y2="150"/>
    <line x1="120" y1="210" x2="840" y2="210"/>
    <line x1="120" y1="270" x2="840" y2="270"/>
    <line x1="120" y1="330" x2="840" y2="330"/>
    <line x1="120" y1="390" x2="840" y2="390"/>
    <line x1="120" y1="450" x2="840" y2="450"/>
  </g>
  <g stroke="#111827" stroke-width="2.5" fill="none">
    <line x1="120" y1="270" x2="850" y2="270"/>
    <line x1="480" y1="460" x2="480" y2="80"/>
  </g>
  <g fill="#111827" font-family="Helvetica, Arial, sans-serif" font-size="20">
    <text x="860" y="277">x</text>
    <text x="488" y="76">y</text>
    <text x="170" y="295">-2</text>
    <text x="320" y="295">-1</text>
    <text x="475" y="295">0</text>
    <text x="625" y="295">1</text>
    <text x="775" y="295">2</text>
    <text x="448" y="456">-3</text>
    <text x="448" y="396">-2</text>
    <text x="448" y="336">-1</text>
    <text x="448" y="216">1</text>
    <text x="448" y="156">2</text>
    <text x="448" y="96">3</text>
  </g>
  <path
    d="M 165 118
       C 220 230, 285 392, 345 392
       C 410 392, 500 125, 570 125
       C 630 125, 710 255, 795 272"
    fill="none"
    stroke="#b45309"
    stroke-width="6"
    stroke-linecap="round"
    stroke-linejoin="round"/>
  <g fill="#b45309">
    <circle cx="330" cy="390" r="6"/>
    <circle cx="570" cy="125" r="6"/>
  </g>
  <g fill="#111827">
    <circle cx="210" cy="225" r="5"/>
    <circle cx="345" cy="392" r="5"/>
    <circle cx="435" cy="288" r="5"/>
    <circle cx="570" cy="125" r="5"/>
    <circle cx="660" cy="184" r="5"/>
    <circle cx="795" cy="272" r="5"/>
  </g>
  <g fill="#111827" font-family="Helvetica, Arial, sans-serif" font-size="24" font-weight="700">
    <text x="190" y="217">A</text>
    <text x="355" y="412">B</text>
    <text x="446" y="280">C</text>
    <text x="582" y="117">D</text>
    <text x="672" y="176">E</text>
    <text x="807" y="264">F</text>
  </g>
</svg>
